<svg width="101" height="100" viewBox="0 0 101 100" fill="none" xmlns="http://www.w3.org/2000/svg">
<g clip-path="url(#clip0_5_82)">
<rect x="0.5" width="100" height="100" rx="24" fill="#E63946"/>
<path d="M25.38 69.4C23.4333 69.4 21.9267 69.2133 20.86 68.84C19.7933 68.4667 19.0467 67.84 18.62 66.96C18.22 66.08 18.02 64.8933 18.02 63.4C18.02 61.88 18.22 60.6933 18.62 59.84C19.0467 58.96 19.7933 58.3333 20.86 57.96C21.9267 57.5867 23.4333 57.4 25.38 57.4H35.62C37.5933 57.4 39.1133 57.5867 40.18 57.96C41.2467 58.3333 41.98 58.96 42.38 59.84C42.8067 60.6933 43.02 61.88 43.02 63.4C43.02 64.8933 42.8067 66.08 42.38 66.96C41.98 67.84 41.2467 68.4667 40.18 68.84C39.1133 69.2133 37.5933 69.4 35.62 69.4H25.38ZM13.66 44.2C13.1267 44.2 12.66 44.0133 12.26 43.64C11.8867 43.2667 11.7 42.8133 11.7 42.28C11.7 41.7467 11.8867 41.2933 12.26 40.92C12.66 40.5467 13.1267 40.36 13.66 40.36H47.18C47.7133 40.36 48.1667 40.5467 48.54 40.92C48.94 41.2933 49.14 41.7467 49.14 42.28C49.14 42.8133 48.94 43.2667 48.54 43.64C48.1667 44.0133 47.7133 44.2 47.18 44.2H13.66ZM19.5 55.44C18.9933 55.44 18.5533 55.2667 18.18 54.92C17.8067 54.5467 17.62 54.1067 17.62 53.6C17.62 53.0667 17.8067 52.6267 18.18 52.28C18.5533 51.9067 18.9933 51.72 19.5 51.72H41.46C41.9933 51.72 42.4333 51.9067 42.78 52.28C43.1533 52.6267 43.34 53.0667 43.34 53.6C43.34 54.1067 43.1533 54.5467 42.78 54.92C42.4333 55.2667 41.9933 55.44 41.46 55.44H19.5ZM19.5 49.84C18.9933 49.84 18.5533 49.6667 18.18 49.32C17.8067 48.9467 17.62 48.5067 17.62 48C17.62 47.4667 17.8067 47.0267 18.18 46.68C18.5533 46.3067 18.9933 46.12 19.5 46.12H41.46C41.9933 46.12 42.4333 46.3067 42.78 46.68C43.1533 47.0267 43.34 47.4667 43.34 48C43.34 48.5067 43.1533 48.9467 42.78 49.32C42.4333 49.6667 41.9933 49.84 41.46 49.84H19.5ZM19.5 38.44C18.9933 38.44 18.5533 38.2533 18.18 37.88C17.8067 37.5067 17.62 37.0667 17.62 36.56C17.62 36.0533 17.8067 35.6267 18.18 35.28C18.5533 34.9067 18.9933 34.72 19.5 34.72H41.46C41.9933 34.72 42.4333 34.9067 42.78 35.28C43.1533 35.6267 43.34 36.0533 43.34 36.56C43.34 37.0667 43.1533 37.5067 42.78 37.88C42.4333 38.2533 41.9933 38.44 41.46 38.44H19.5ZM25.58 65.44H35.46C36.4733 65.44 37.1533 65.2933 37.5 65C37.8467 64.7067 38.02 64.1733 38.02 63.4C38.02 62.6 37.8467 62.0533 37.5 61.76C37.1533 61.4667 36.4733 61.32 35.46 61.32H25.58C24.5667 61.32 23.8867 61.4667 23.54 61.76C23.1933 62.0533 23.02 62.6 23.02 63.4C23.02 64.1733 23.1933 64.7067 23.54 65C23.8867 65.2933 24.5667 65.44 25.58 65.44ZM70.54 70.68C69.9267 70.68 69.3933 70.4667 68.94 70.04C68.4867 69.6133 68.26 69.0533 68.26 68.36V63.48C67.22 64.2533 66.0067 65.0267 64.62 65.8C63.26 66.5733 61.8733 67.28 60.46 67.92C59.0467 68.5867 57.7133 69.1333 56.46 69.56C55.7933 69.8 55.1533 69.84 54.54 69.68C53.9267 69.5467 53.4733 69.12 53.18 68.4C52.9667 67.8133 52.98 67.2533 53.22 66.72C53.46 66.16 53.9533 65.7733 54.7 65.56C55.6333 65.2933 56.66 64.9467 57.78 64.52C58.9 64.0667 60.02 63.5867 61.14 63.08C62.2867 62.5733 63.3267 62.0667 64.26 61.56H53.86C53.3533 61.56 52.9267 61.3867 52.58 61.04C52.2333 60.6933 52.06 60.2667 52.06 59.76C52.06 59.2533 52.2333 58.8267 52.58 58.48C52.9267 58.1067 53.3533 57.92 53.86 57.92H68.26V56.44H67.3C65.1667 56.44 63.5133 56.2533 62.34 55.88C61.1933 55.48 60.3933 54.8267 59.94 53.92C59.4867 52.9867 59.26 51.7067 59.26 50.08V47.24H53.94C53.46 47.24 53.0467 47.0667 52.7 46.72C52.38 46.3733 52.22 45.96 52.22 45.48C52.22 45 52.38 44.5867 52.7 44.24C53.0467 43.8933 53.46 43.72 53.94 43.72H59.26V42.72C59.26 42 59.4867 41.44 59.94 41.04C60.3933 40.6133 60.94 40.4 61.58 40.4C62.0333 40.4 62.4333 40.4933 62.78 40.68V39.56H54.18C53.6733 39.56 53.2467 39.3867 52.9 39.04C52.5533 38.6933 52.38 38.28 52.38 37.8C52.38 37.2933 52.5533 36.8667 52.9 36.52C53.2467 36.1733 53.6733 36 54.18 36H62.78V35C62.78 34.3333 62.9933 33.8133 63.42 33.44C63.8467 33.04 64.3533 32.84 64.94 32.84C65.5533 32.84 66.0733 33.04 66.5 33.44C66.9267 33.8133 67.14 34.3333 67.14 35V36H73.9V35C73.9 34.3333 74.1133 33.8133 74.54 33.44C74.9933 33.04 75.5133 32.84 76.1 32.84C76.7133 32.84 77.22 33.04 77.62 33.44C78.0467 33.8133 78.26 34.3333 78.26 35V36H86.86C87.34 36 87.7533 36.1733 88.1 36.52C88.4467 36.8667 88.62 37.2933 88.62 37.8C88.62 38.28 88.4467 38.6933 88.1 39.04C87.7533 39.3867 87.34 39.56 86.86 39.56H78.26V40.56C78.3933 40.5067 78.5133 40.48 78.62 40.48C78.7267 40.48 78.8333 40.48 78.94 40.48C79.5533 40.48 80.0733 40.68 80.5 41.08C80.9533 41.4533 81.18 41.9867 81.18 42.68V43.72H87.1C87.58 43.72 87.98 43.8933 88.3 44.24C88.6467 44.5867 88.82 45 88.82 45.48C88.82 45.96 88.6467 46.3733 88.3 46.72C87.98 47.0667 87.58 47.24 87.1 47.24H81.18C81.18 48.44 80.9933 49.3867 80.62 50.08C80.2467 50.7467 79.5667 51.2267 78.58 51.52C77.62 51.7867 76.2067 51.92 74.34 51.92C72.5 51.92 71.0867 51.7867 70.1 51.52C69.1133 51.2267 68.4333 50.7467 68.06 50.08C67.7133 49.3867 67.54 48.44 67.54 47.24H63.9V50.08C63.9 51.1733 64.14 51.9067 64.62 52.28C65.1267 52.6533 66.02 52.84 67.3 52.84H83.1C83.6067 52.84 84.0333 53.0133 84.38 53.36C84.7267 53.7067 84.9 54.1333 84.9 54.64C84.9 55.1467 84.7267 55.5733 84.38 55.92C84.0333 56.2667 83.6067 56.44 83.1 56.44H72.86V57.92H87.18C87.6867 57.92 88.1133 58.1067 88.46 58.48C88.8067 58.8267 88.98 59.2533 88.98 59.76C88.98 60.2667 88.8067 60.6933 88.46 61.04C88.1133 61.3867 87.6867 61.56 87.18 61.56H77.02C78.4867 62.3067 80.1 63.0533 81.86 63.8C83.62 64.5467 85.2333 65.12 86.7 65.52C87.3933 65.7067 87.86 66.0667 88.1 66.6C88.3667 67.1067 88.38 67.68 88.14 68.32C87.8733 68.9867 87.42 69.4 86.78 69.56C86.1667 69.72 85.5133 69.6933 84.82 69.48C83.5933 69.08 82.26 68.5467 80.82 67.88C79.38 67.24 77.9533 66.5333 76.54 65.76C75.1533 64.96 73.9267 64.16 72.86 63.36V68.36C72.86 69.0533 72.6333 69.6133 72.18 70.04C71.7267 70.4667 71.18 70.68 70.54 70.68ZM63.9 43.72H67.54V42.64C67.54 41.9733 67.7533 41.4533 68.18 41.08C68.6067 40.68 69.1133 40.48 69.7 40.48C70.3133 40.48 70.82 40.68 71.22 41.08C71.6467 41.4533 71.86 41.9733 71.86 42.64V43.72H76.74V42.48C76.6333 42.5067 76.5267 42.5333 76.42 42.56C76.3133 42.56 76.2067 42.56 76.1 42.56C75.5133 42.56 74.9933 42.36 74.54 41.96C74.1133 41.56 73.9 41.0267 73.9 40.36V39.56H67.14V40.36C67.14 41.0267 66.9267 41.56 66.5 41.96C66.0733 42.36 65.5533 42.56 64.94 42.56C64.7533 42.56 64.5667 42.5333 64.38 42.48C64.1933 42.4267 64.02 42.36 63.86 42.28C63.8867 42.3867 63.9 42.5333 63.9 42.72V43.72ZM74.3 48.72C75.2867 48.72 75.9267 48.64 76.22 48.48C76.54 48.2933 76.7133 47.88 76.74 47.24H71.86C71.8867 47.88 72.0467 48.2933 72.34 48.48C72.66 48.64 73.3133 48.72 74.3 48.72Z" fill="#FAF3E0"/>
</g>
<defs>
<clipPath id="clip0_5_82">
<rect x="0.5" width="100" height="100" rx="24" fill="white"/>
</clipPath>
</defs>
</svg>
