<svg width="334" height="115" viewBox="0 0 334 115" fill="none" xmlns="http://www.w3.org/2000/svg">
<path d="M26.144 58.5C24.32 58.5 23.408 57.556 23.408 55.668V27.732C23.408 25.844 24.32 24.9 26.144 24.9C28 24.9 28.928 25.844 28.928 27.732V39.492L39.728 27.06C40.432 26.196 41.072 25.62 41.648 25.332C42.224 25.044 42.96 24.9 43.856 24.9C44.656 24.9 45.248 25.092 45.632 25.476C46.016 25.86 46.192 26.324 46.16 26.868C46.16 27.412 45.968 27.924 45.584 28.404L34.832 40.548L46.256 55.092C46.64 55.604 46.848 56.148 46.88 56.724C46.912 57.3 46.72 57.78 46.304 58.164C45.92 58.548 45.264 58.74 44.336 58.74C43.376 58.74 42.592 58.564 41.984 58.212C41.408 57.828 40.896 57.332 40.448 56.724L28.928 41.316V55.668C28.928 57.556 28 58.5 26.144 58.5ZM60.239 59.028C58.127 59.028 56.223 58.532 54.527 57.54C52.863 56.516 51.535 55.108 50.543 53.316C49.583 51.492 49.103 49.364 49.103 46.932C49.103 44.5 49.583 42.388 50.543 40.596C51.535 38.772 52.863 37.364 54.527 36.372C56.223 35.348 58.127 34.836 60.239 34.836C62.415 34.836 64.335 35.348 65.999 36.372C67.695 37.364 69.023 38.772 69.983 40.596C70.943 42.388 71.423 44.5 71.423 46.932C71.423 49.364 70.943 51.492 69.983 53.316C69.023 55.108 67.695 56.516 65.999 57.54C64.335 58.532 62.415 59.028 60.239 59.028ZM60.239 54.132C61.935 54.132 63.311 53.508 64.367 52.26C65.455 51.012 65.999 49.236 65.999 46.932C65.999 44.628 65.455 42.852 64.367 41.604C63.311 40.356 61.935 39.732 60.239 39.732C58.575 39.732 57.215 40.356 56.159 41.604C55.103 42.852 54.575 44.628 54.575 46.932C54.575 49.236 55.103 51.012 56.159 52.26C57.215 53.508 58.575 54.132 60.239 54.132ZM85.5403 59.028C83.2683 59.028 81.5243 58.612 80.3083 57.78C79.1243 56.948 78.5323 55.284 78.5323 52.788V40.068H76.9483C75.0603 40.068 74.1163 39.284 74.1163 37.716C74.1163 36.98 74.3083 36.42 74.6923 36.036C75.1083 35.62 75.8443 35.412 76.9003 35.412H78.5323V30.132C78.5323 28.244 79.4443 27.3 81.2683 27.3C83.0283 27.3 83.9083 28.244 83.9083 30.132V35.412H87.4603C89.3483 35.412 90.2923 36.18 90.2923 37.716C90.2923 39.284 89.3643 40.068 87.5083 40.068H83.9083V51.396C83.9083 52.484 84.1643 53.22 84.6763 53.604C85.2203 53.988 85.9883 54.18 86.9803 54.18C88.0043 54.18 88.8043 54.308 89.3803 54.564C89.9883 54.788 90.2923 55.396 90.2923 56.388C90.2923 57.188 90.0523 57.78 89.5723 58.164C89.1243 58.516 88.5323 58.74 87.7963 58.836C87.0923 58.964 86.3403 59.028 85.5403 59.028ZM104.489 59.028C102.377 59.028 100.473 58.532 98.777 57.54C97.113 56.516 95.785 55.108 94.793 53.316C93.833 51.492 93.353 49.364 93.353 46.932C93.353 44.5 93.833 42.388 94.793 40.596C95.785 38.772 97.113 37.364 98.777 36.372C100.473 35.348 102.377 34.836 104.489 34.836C106.665 34.836 108.585 35.348 110.249 36.372C111.945 37.364 113.273 38.772 114.233 40.596C115.193 42.388 115.673 44.5 115.673 46.932C115.673 49.364 115.193 51.492 114.233 53.316C113.273 55.108 111.945 56.516 110.249 57.54C108.585 58.532 106.665 59.028 104.489 59.028ZM104.489 54.132C106.185 54.132 107.561 53.508 108.617 52.26C109.705 51.012 110.249 49.236 110.249 46.932C110.249 44.628 109.705 42.852 108.617 41.604C107.561 40.356 106.185 39.732 104.489 39.732C102.825 39.732 101.465 40.356 100.409 41.604C99.353 42.852 98.825 44.628 98.825 46.932C98.825 49.236 99.353 51.012 100.409 52.26C101.465 53.508 102.825 54.132 104.489 54.132ZM131.758 59.028C129.038 59.028 126.894 57.844 125.326 55.476V56.436C125.326 57.204 125.07 57.748 124.558 58.068C124.078 58.356 123.47 58.5 122.734 58.5C121.134 58.5 120.334 57.556 120.334 55.668V27.108C120.334 25.22 121.246 24.276 123.07 24.276C124.862 24.276 125.758 25.22 125.758 27.108V37.476C126.526 36.644 127.422 36.004 128.446 35.556C129.47 35.076 130.574 34.836 131.758 34.836C133.902 34.836 135.806 35.316 137.47 36.276C139.166 37.236 140.494 38.628 141.454 40.452C142.414 42.244 142.894 44.404 142.894 46.932C142.894 49.46 142.414 51.636 141.454 53.46C140.494 55.252 139.166 56.628 137.47 57.588C135.806 58.548 133.902 59.028 131.758 59.028ZM131.566 54.132C133.262 54.132 134.67 53.508 135.79 52.26C136.91 51.012 137.47 49.236 137.47 46.932C137.47 44.628 136.91 42.852 135.79 41.604C134.67 40.356 133.262 39.732 131.566 39.732C129.87 39.732 128.462 40.356 127.342 41.604C126.222 42.852 125.662 44.628 125.662 46.932C125.662 49.236 126.222 51.012 127.342 52.26C128.462 53.508 129.87 54.132 131.566 54.132ZM154.684 58.836C152.188 58.932 150.124 58.388 148.492 57.204C146.892 56.02 146.092 54.308 146.092 52.068C146.092 50.436 146.588 49.044 147.58 47.892C148.572 46.74 149.852 45.844 151.42 45.204C152.988 44.532 154.604 44.18 156.268 44.148C157.1 44.084 157.884 44.148 158.62 44.34C159.356 44.532 160.012 44.804 160.588 45.156V43.14C160.588 41.636 160.268 40.66 159.628 40.212C158.988 39.764 158.044 39.54 156.796 39.54C155.9 39.54 154.956 39.652 153.964 39.876C153.004 40.1 152.06 40.404 151.132 40.788C150.3 41.14 149.58 41.268 148.972 41.172C148.396 41.076 147.916 40.692 147.532 40.02C147.148 39.348 147.052 38.708 147.244 38.1C147.468 37.46 148.012 36.964 148.876 36.612C150.028 36.068 151.276 35.636 152.62 35.316C153.996 34.996 155.388 34.836 156.796 34.836C159.772 34.836 162.012 35.444 163.516 36.66C165.02 37.844 165.772 40.004 165.772 43.14V53.748C165.772 54.068 165.804 54.324 165.868 54.516C165.964 54.708 166.044 54.852 166.108 54.948C166.396 55.364 166.7 55.604 167.02 55.668C167.372 55.732 167.676 55.78 167.932 55.812C168.188 55.812 168.316 55.956 168.316 56.244C168.316 56.82 168.156 57.316 167.836 57.732C167.548 58.148 167.052 58.436 166.348 58.596C165.612 58.756 164.892 58.836 164.188 58.836C163.196 58.836 162.428 58.676 161.884 58.356C161.372 58.004 161.004 57.428 160.78 56.628C159.98 57.3 159.052 57.828 157.996 58.212C156.94 58.564 155.836 58.772 154.684 58.836ZM154.588 54.132C156.38 54.068 157.852 53.716 159.004 53.076C160.188 52.436 160.748 51.524 160.684 50.34C160.652 49.572 160.252 49.044 159.484 48.756C158.748 48.468 157.82 48.356 156.7 48.42C155.132 48.452 153.836 48.852 152.812 49.62C151.788 50.356 151.292 51.188 151.324 52.116C151.388 53.556 152.476 54.228 154.588 54.132Z" fill="#FAF3E0"/>
<rect x="180" y="9.5" width="80" height="56" rx="8" fill="#FAF3E0"/>
<path d="M197.392 53.66C195.64 53.66 194.284 53.492 193.324 53.156C192.364 52.82 191.692 52.256 191.308 51.464C190.948 50.672 190.768 49.604 190.768 48.26C190.768 46.892 190.948 45.824 191.308 45.056C191.692 44.264 192.364 43.7 193.324 43.364C194.284 43.028 195.64 42.86 197.392 42.86H206.608C208.384 42.86 209.752 43.028 210.712 43.364C211.672 43.7 212.332 44.264 212.692 45.056C213.076 45.824 213.268 46.892 213.268 48.26C213.268 49.604 213.076 50.672 212.692 51.464C212.332 52.256 211.672 52.82 210.712 53.156C209.752 53.492 208.384 53.66 206.608 53.66H197.392ZM186.844 30.98C186.364 30.98 185.944 30.812 185.584 30.476C185.248 30.14 185.08 29.732 185.08 29.252C185.08 28.772 185.248 28.364 185.584 28.028C185.944 27.692 186.364 27.524 186.844 27.524H217.012C217.492 27.524 217.9 27.692 218.236 28.028C218.596 28.364 218.776 28.772 218.776 29.252C218.776 29.732 218.596 30.14 218.236 30.476C217.9 30.812 217.492 30.98 217.012 30.98H186.844ZM192.1 41.096C191.644 41.096 191.248 40.94 190.912 40.628C190.576 40.292 190.408 39.896 190.408 39.44C190.408 38.96 190.576 38.564 190.912 38.252C191.248 37.916 191.644 37.748 192.1 37.748H211.864C212.344 37.748 212.74 37.916 213.052 38.252C213.388 38.564 213.556 38.96 213.556 39.44C213.556 39.896 213.388 40.292 213.052 40.628C212.74 40.94 212.344 41.096 211.864 41.096H192.1ZM192.1 36.056C191.644 36.056 191.248 35.9 190.912 35.588C190.576 35.252 190.408 34.856 190.408 34.4C190.408 33.92 190.576 33.524 190.912 33.212C191.248 32.876 191.644 32.708 192.1 32.708H211.864C212.344 32.708 212.74 32.876 213.052 33.212C213.388 33.524 213.556 33.92 213.556 34.4C213.556 34.856 213.388 35.252 213.052 35.588C212.74 35.9 212.344 36.056 211.864 36.056H192.1ZM192.1 25.796C191.644 25.796 191.248 25.628 190.912 25.292C190.576 24.956 190.408 24.56 190.408 24.104C190.408 23.648 190.576 23.264 190.912 22.952C191.248 22.616 191.644 22.448 192.1 22.448H211.864C212.344 22.448 212.74 22.616 213.052 22.952C213.388 23.264 213.556 23.648 213.556 24.104C213.556 24.56 213.388 24.956 213.052 25.292C212.74 25.628 212.344 25.796 211.864 25.796H192.1ZM197.572 50.096H206.464C207.376 50.096 207.988 49.964 208.3 49.7C208.612 49.436 208.768 48.956 208.768 48.26C208.768 47.54 208.612 47.048 208.3 46.784C207.988 46.52 207.376 46.388 206.464 46.388H197.572C196.66 46.388 196.048 46.52 195.736 46.784C195.424 47.048 195.268 47.54 195.268 48.26C195.268 48.956 195.424 49.436 195.736 49.7C196.048 49.964 196.66 50.096 197.572 50.096ZM238.036 54.812C237.484 54.812 237.004 54.62 236.596 54.236C236.188 53.852 235.984 53.348 235.984 52.724V48.332C235.048 49.028 233.956 49.724 232.708 50.42C231.484 51.116 230.236 51.752 228.964 52.328C227.692 52.928 226.492 53.42 225.364 53.804C224.764 54.02 224.188 54.056 223.636 53.912C223.084 53.792 222.676 53.408 222.412 52.76C222.22 52.232 222.232 51.728 222.448 51.248C222.664 50.744 223.108 50.396 223.78 50.204C224.62 49.964 225.544 49.652 226.552 49.268C227.56 48.86 228.568 48.428 229.576 47.972C230.608 47.516 231.544 47.06 232.384 46.604H223.024C222.568 46.604 222.184 46.448 221.872 46.136C221.56 45.824 221.404 45.44 221.404 44.984C221.404 44.528 221.56 44.144 221.872 43.832C222.184 43.496 222.568 43.328 223.024 43.328H235.984V41.996H235.12C233.2 41.996 231.712 41.828 230.656 41.492C229.624 41.132 228.904 40.544 228.496 39.728C228.088 38.888 227.884 37.736 227.884 36.272V33.716H223.096C222.664 33.716 222.292 33.56 221.98 33.248C221.692 32.936 221.548 32.564 221.548 32.132C221.548 31.7 221.692 31.328 221.98 31.016C222.292 30.704 222.664 30.548 223.096 30.548H227.884V29.648C227.884 29 228.088 28.496 228.496 28.136C228.904 27.752 229.396 27.56 229.972 27.56C230.38 27.56 230.74 27.644 231.052 27.812V26.804H223.312C222.856 26.804 222.472 26.648 222.16 26.336C221.848 26.024 221.692 25.652 221.692 25.22C221.692 24.764 221.848 24.38 222.16 24.068C222.472 23.756 222.856 23.6 223.312 23.6H231.052V22.7C231.052 22.1 231.244 21.632 231.628 21.296C232.012 20.936 232.468 20.756 232.996 20.756C233.548 20.756 234.016 20.936 234.4 21.296C234.784 21.632 234.976 22.1 234.976 22.7V23.6H241.06V22.7C241.06 22.1 241.252 21.632 241.636 21.296C242.044 20.936 242.512 20.756 243.04 20.756C243.592 20.756 244.048 20.936 244.408 21.296C244.792 21.632 244.984 22.1 244.984 22.7V23.6H252.724C253.156 23.6 253.528 23.756 253.84 24.068C254.152 24.38 254.308 24.764 254.308 25.22C254.308 25.652 254.152 26.024 253.84 26.336C253.528 26.648 253.156 26.804 252.724 26.804H244.984V27.704C245.104 27.656 245.212 27.632 245.308 27.632C245.404 27.632 245.5 27.632 245.596 27.632C246.148 27.632 246.616 27.812 247 28.172C247.408 28.508 247.612 28.988 247.612 29.612V30.548H252.94C253.372 30.548 253.732 30.704 254.02 31.016C254.332 31.328 254.488 31.7 254.488 32.132C254.488 32.564 254.332 32.936 254.02 33.248C253.732 33.56 253.372 33.716 252.94 33.716H247.612C247.612 34.796 247.444 35.648 247.108 36.272C246.772 36.872 246.16 37.304 245.272 37.568C244.408 37.808 243.136 37.928 241.456 37.928C239.8 37.928 238.528 37.808 237.64 37.568C236.752 37.304 236.14 36.872 235.804 36.272C235.492 35.648 235.336 34.796 235.336 33.716H232.06V36.272C232.06 37.256 232.276 37.916 232.708 38.252C233.164 38.588 233.968 38.756 235.12 38.756H249.34C249.796 38.756 250.18 38.912 250.492 39.224C250.804 39.536 250.96 39.92 250.96 40.376C250.96 40.832 250.804 41.216 250.492 41.528C250.18 41.84 249.796 41.996 249.34 41.996H240.124V43.328H253.012C253.468 43.328 253.852 43.496 254.164 43.832C254.476 44.144 254.632 44.528 254.632 44.984C254.632 45.44 254.476 45.824 254.164 46.136C253.852 46.448 253.468 46.604 253.012 46.604H243.868C245.188 47.276 246.64 47.948 248.224 48.62C249.808 49.292 251.26 49.808 252.58 50.168C253.204 50.336 253.624 50.66 253.84 51.14C254.08 51.596 254.092 52.112 253.876 52.688C253.636 53.288 253.228 53.66 252.652 53.804C252.1 53.948 251.512 53.924 250.888 53.732C249.784 53.372 248.584 52.892 247.288 52.292C245.992 51.716 244.708 51.08 243.436 50.384C242.188 49.664 241.084 48.944 240.124 48.224V52.724C240.124 53.348 239.92 53.852 239.512 54.236C239.104 54.62 238.612 54.812 238.036 54.812ZM232.06 30.548H235.336V29.576C235.336 28.976 235.528 28.508 235.912 28.172C236.296 27.812 236.752 27.632 237.28 27.632C237.832 27.632 238.288 27.812 238.648 28.172C239.032 28.508 239.224 28.976 239.224 29.576V30.548H243.616V29.432C243.52 29.456 243.424 29.48 243.328 29.504C243.232 29.504 243.136 29.504 243.04 29.504C242.512 29.504 242.044 29.324 241.636 28.964C241.252 28.604 241.06 28.124 241.06 27.524V26.804H234.976V27.524C234.976 28.124 234.784 28.604 234.4 28.964C234.016 29.324 233.548 29.504 232.996 29.504C232.828 29.504 232.66 29.48 232.492 29.432C232.324 29.384 232.168 29.324 232.024 29.252C232.048 29.348 232.06 29.48 232.06 29.648V30.548ZM241.42 35.048C242.308 35.048 242.884 34.976 243.148 34.832C243.436 34.664 243.592 34.292 243.616 33.716H239.224C239.248 34.292 239.392 34.664 239.656 34.832C239.944 34.976 240.532 35.048 241.42 35.048Z" fill="#E63946"/>
<path d="M273.6 58.5C272.672 58.5 272.032 58.228 271.68 57.684C271.328 57.14 271.328 56.404 271.68 55.476L282.528 27.012C283.008 25.604 284.016 24.9 285.552 24.9H285.936C287.472 24.9 288.48 25.604 288.96 27.012L299.856 55.476C300.208 56.404 300.192 57.14 299.808 57.684C299.456 58.228 298.816 58.5 297.888 58.5H296.976C295.472 58.5 294.48 57.78 294 56.34L292.128 51.108H279.216L277.344 56.34C276.864 57.78 275.872 58.5 274.368 58.5H273.6ZM281.04 45.972H290.352L285.744 32.868L281.04 45.972ZM307.644 58.5C305.82 58.5 304.908 57.556 304.908 55.668V27.732C304.908 25.844 305.82 24.9 307.644 24.9C309.5 24.9 310.428 25.844 310.428 27.732V55.668C310.428 57.556 309.5 58.5 307.644 58.5Z" fill="#FAF3E0"/>
<path d="M53.3851 91.5L52.5531 88.78H48.3931L47.5611 91.5H44.9531L48.9851 80.028H51.9451L55.9931 91.5H53.3851ZM51.1451 84.092C51.0918 83.9107 51.0225 83.6813 50.9371 83.404C50.8518 83.1267 50.7665 82.844 50.6811 82.556C50.5958 82.268 50.5265 82.0173 50.4731 81.804C50.4198 82.0173 50.3451 82.284 50.2491 82.604C50.1638 82.9133 50.0785 83.212 49.9931 83.5C49.9185 83.7773 49.8598 83.9747 49.8171 84.092L49.0011 86.748H51.9771L51.1451 84.092ZM61.712 91.5H56.512V90.124L57.904 89.484V82.092L56.512 81.452V80.076H61.712V81.452L60.32 82.092V89.484L61.712 90.124V91.5ZM62.6988 88.188V86.236H66.8908V88.188H62.6988ZM73.487 82.604C74.4683 82.604 75.263 82.988 75.871 83.756C76.479 84.5133 76.783 85.6333 76.783 87.116C76.783 88.108 76.639 88.9453 76.351 89.628C76.063 90.3 75.6683 90.8067 75.167 91.148C74.6657 91.4893 74.0843 91.66 73.423 91.66C73.007 91.66 72.6443 91.6067 72.335 91.5C72.0363 91.3933 71.7803 91.2547 71.567 91.084C71.3537 90.9133 71.167 90.732 71.007 90.54H70.879C70.9217 90.7427 70.9537 90.956 70.975 91.18C70.9963 91.3933 71.007 91.6067 71.007 91.82V95.34H68.623V82.764H70.559L70.895 83.9H71.007C71.167 83.6653 71.359 83.452 71.583 83.26C71.807 83.0573 72.0737 82.8973 72.383 82.78C72.703 82.6627 73.071 82.604 73.487 82.604ZM72.719 84.508C72.303 84.508 71.9723 84.5933 71.727 84.764C71.4817 84.9347 71.3003 85.196 71.183 85.548C71.0763 85.8893 71.0177 86.3213 71.007 86.844V87.1C71.007 87.6653 71.0603 88.1453 71.167 88.54C71.2737 88.924 71.455 89.2173 71.711 89.42C71.967 89.6227 72.3137 89.724 72.751 89.724C73.1137 89.724 73.4123 89.6227 73.647 89.42C73.8817 89.2173 74.0577 88.9187 74.175 88.524C74.2923 88.1293 74.351 87.6493 74.351 87.084C74.351 86.2307 74.2177 85.5907 73.951 85.164C73.695 84.7267 73.2843 84.508 72.719 84.508ZM86.684 87.116C86.684 87.8413 86.5827 88.4867 86.38 89.052C86.188 89.6173 85.9053 90.0973 85.532 90.492C85.1693 90.876 84.7267 91.1693 84.204 91.372C83.6813 91.564 83.0893 91.66 82.428 91.66C81.82 91.66 81.2547 91.564 80.732 91.372C80.22 91.1693 79.7773 90.876 79.404 90.492C79.0307 90.0973 78.7373 89.6173 78.524 89.052C78.3213 88.4867 78.22 87.8413 78.22 87.116C78.22 86.1453 78.3907 85.3293 78.732 84.668C79.0733 83.996 79.564 83.484 80.204 83.132C80.844 82.78 81.6013 82.604 82.476 82.604C83.2973 82.604 84.0227 82.78 84.652 83.132C85.2813 83.484 85.7773 83.996 86.14 84.668C86.5027 85.3293 86.684 86.1453 86.684 87.116ZM80.652 87.116C80.652 87.692 80.7107 88.1773 80.828 88.572C80.956 88.956 81.1533 89.2493 81.42 89.452C81.6867 89.644 82.0333 89.74 82.46 89.74C82.8867 89.74 83.228 89.644 83.484 89.452C83.7507 89.2493 83.9427 88.956 84.06 88.572C84.188 88.1773 84.252 87.692 84.252 87.116C84.252 86.54 84.188 86.06 84.06 85.676C83.9427 85.292 83.7507 85.004 83.484 84.812C83.2173 84.62 82.8707 84.524 82.444 84.524C81.8147 84.524 81.356 84.7427 81.068 85.18C80.7907 85.6067 80.652 86.252 80.652 87.116ZM94.8538 88.444C94.8111 88.2627 94.7471 87.996 94.6618 87.644C94.5871 87.2813 94.5018 86.8973 94.4058 86.492C94.3098 86.076 94.2191 85.6973 94.1338 85.356C94.0484 85.004 93.9898 84.748 93.9578 84.588H93.8938C93.8618 84.748 93.8031 85.004 93.7178 85.356C93.6431 85.6973 93.5578 86.076 93.4618 86.492C93.3658 86.8973 93.2751 87.2813 93.1898 87.644C93.1044 88.0067 93.0404 88.284 92.9978 88.476L92.2938 91.5H89.7338L87.2538 82.764H89.6218L90.6298 86.636C90.7044 86.9027 90.7684 87.2227 90.8218 87.596C90.8858 87.9693 90.9444 88.332 90.9978 88.684C91.0511 89.0253 91.0884 89.2973 91.1098 89.5H91.1738C91.1844 89.3507 91.2058 89.1533 91.2378 88.908C91.2698 88.652 91.3071 88.3907 91.3498 88.124C91.4031 87.8573 91.4458 87.6173 91.4778 87.404C91.5204 87.18 91.5524 87.0307 91.5738 86.956L92.6458 82.764H95.2698L96.2938 86.956C96.3364 87.1053 96.3844 87.3453 96.4378 87.676C96.5018 88.0067 96.5551 88.3427 96.5978 88.684C96.6511 89.0253 96.6778 89.2973 96.6778 89.5H96.7418C96.7631 89.3187 96.8004 89.0573 96.8538 88.716C96.9071 88.364 96.9658 87.996 97.0298 87.612C97.1044 87.228 97.1791 86.9027 97.2538 86.636L98.2938 82.764H100.63L98.1178 91.5H95.5258L94.8538 88.444ZM105.645 82.604C106.456 82.604 107.149 82.7587 107.725 83.068C108.312 83.3773 108.765 83.8253 109.085 84.412C109.405 84.9987 109.565 85.7187 109.565 86.572V87.724H103.933C103.954 88.396 104.152 88.924 104.525 89.308C104.909 89.692 105.437 89.884 106.109 89.884C106.674 89.884 107.186 89.8307 107.645 89.724C108.104 89.6067 108.578 89.4307 109.069 89.196V91.036C108.642 91.2493 108.189 91.404 107.709 91.5C107.24 91.6067 106.669 91.66 105.997 91.66C105.122 91.66 104.349 91.5 103.677 91.18C103.005 90.8493 102.477 90.3533 102.093 89.692C101.709 89.0307 101.517 88.1987 101.517 87.196C101.517 86.172 101.688 85.324 102.029 84.652C102.381 83.9693 102.866 83.4573 103.485 83.116C104.104 82.7747 104.824 82.604 105.645 82.604ZM105.661 84.3C105.202 84.3 104.818 84.4493 104.509 84.748C104.21 85.0467 104.034 85.5107 103.981 86.14H107.325C107.325 85.788 107.261 85.4733 107.133 85.196C107.016 84.9187 106.834 84.7 106.589 84.54C106.344 84.38 106.034 84.3 105.661 84.3ZM116.378 82.604C116.495 82.604 116.634 82.6093 116.794 82.62C116.954 82.6307 117.082 82.6467 117.178 82.668L117.002 84.908C116.927 84.8867 116.815 84.8707 116.666 84.86C116.527 84.8387 116.405 84.828 116.298 84.828C115.989 84.828 115.69 84.8707 115.402 84.956C115.114 85.0307 114.853 85.1533 114.618 85.324C114.394 85.4947 114.213 85.724 114.074 86.012C113.946 86.2893 113.882 86.636 113.882 87.052V91.5H111.498V82.764H113.306L113.658 84.236H113.77C113.941 83.9373 114.154 83.6653 114.41 83.42C114.666 83.1747 114.959 82.9773 115.29 82.828C115.631 82.6787 115.994 82.604 116.378 82.604ZM122.051 82.604C122.862 82.604 123.555 82.7587 124.131 83.068C124.718 83.3773 125.171 83.8253 125.491 84.412C125.811 84.9987 125.971 85.7187 125.971 86.572V87.724H120.339C120.36 88.396 120.558 88.924 120.931 89.308C121.315 89.692 121.843 89.884 122.515 89.884C123.08 89.884 123.592 89.8307 124.051 89.724C124.51 89.6067 124.984 89.4307 125.475 89.196V91.036C125.048 91.2493 124.595 91.404 124.115 91.5C123.646 91.6067 123.075 91.66 122.403 91.66C121.528 91.66 120.755 91.5 120.083 91.18C119.411 90.8493 118.883 90.3533 118.499 89.692C118.115 89.0307 117.923 88.1987 117.923 87.196C117.923 86.172 118.094 85.324 118.435 84.652C118.787 83.9693 119.272 83.4573 119.891 83.116C120.51 82.7747 121.23 82.604 122.051 82.604ZM122.067 84.3C121.608 84.3 121.224 84.4493 120.915 84.748C120.616 85.0467 120.44 85.5107 120.387 86.14H123.731C123.731 85.788 123.667 85.4733 123.539 85.196C123.422 84.9187 123.24 84.7 122.995 84.54C122.75 84.38 122.44 84.3 122.067 84.3ZM130.672 91.66C129.702 91.66 128.907 91.2813 128.288 90.524C127.68 89.756 127.376 88.6307 127.376 87.148C127.376 85.6547 127.686 84.524 128.304 83.756C128.923 82.988 129.734 82.604 130.736 82.604C131.152 82.604 131.52 82.6627 131.84 82.78C132.16 82.8867 132.432 83.036 132.656 83.228C132.891 83.42 133.088 83.6387 133.248 83.884H133.328C133.296 83.7133 133.259 83.468 133.216 83.148C133.174 82.8173 133.152 82.4813 133.152 82.14V79.34H135.536V91.5H133.712L133.248 90.364H133.152C133.003 90.5987 132.811 90.8173 132.576 91.02C132.352 91.212 132.086 91.3667 131.776 91.484C131.467 91.6013 131.099 91.66 130.672 91.66ZM131.504 89.756C132.166 89.756 132.63 89.564 132.896 89.18C133.163 88.7853 133.302 88.1987 133.312 87.42V87.164C133.312 86.3107 133.179 85.66 132.912 85.212C132.656 84.764 132.176 84.54 131.472 84.54C130.95 84.54 130.539 84.7693 130.24 85.228C129.942 85.676 129.792 86.3267 129.792 87.18C129.792 88.0333 129.942 88.6787 130.24 89.116C130.539 89.5427 130.96 89.756 131.504 89.756ZM141.178 94.86C140.868 94.86 140.596 94.8387 140.361 94.796C140.127 94.764 139.924 94.7267 139.753 94.684V92.668C139.924 92.7107 140.105 92.748 140.297 92.78C140.479 92.812 140.676 92.828 140.889 92.828C141.167 92.828 141.418 92.7747 141.642 92.668C141.876 92.5613 142.058 92.3587 142.186 92.06C142.314 91.7613 142.378 91.3347 142.378 90.78V80.076H144.794V90.764C144.794 91.7453 144.639 92.5347 144.33 93.132C144.031 93.74 143.61 94.1773 143.066 94.444C142.522 94.7213 141.892 94.86 141.178 94.86ZM151.066 82.588C152.24 82.588 153.136 82.844 153.754 83.356C154.384 83.8573 154.698 84.6307 154.698 85.676V91.5H153.034L152.57 90.316H152.506C152.261 90.6253 152.005 90.8813 151.738 91.084C151.482 91.2867 151.184 91.4307 150.842 91.516C150.512 91.612 150.101 91.66 149.61 91.66C149.098 91.66 148.634 91.564 148.218 91.372C147.813 91.1693 147.493 90.8653 147.258 90.46C147.024 90.044 146.906 89.5213 146.906 88.892C146.906 87.964 147.232 87.2813 147.882 86.844C148.533 86.396 149.509 86.1507 150.81 86.108L152.33 86.06V85.676C152.33 85.2173 152.208 84.8813 151.962 84.668C151.728 84.4547 151.397 84.348 150.97 84.348C150.544 84.348 150.128 84.412 149.722 84.54C149.317 84.6573 148.912 84.8067 148.506 84.988L147.722 83.372C148.192 83.1267 148.709 82.9347 149.274 82.796C149.85 82.6573 150.448 82.588 151.066 82.588ZM151.402 87.484C150.634 87.5053 150.101 87.644 149.802 87.9C149.504 88.156 149.354 88.492 149.354 88.908C149.354 89.2707 149.461 89.532 149.674 89.692C149.888 89.8413 150.165 89.916 150.506 89.916C151.018 89.916 151.45 89.7667 151.802 89.468C152.154 89.1587 152.33 88.7267 152.33 88.172V87.452L151.402 87.484ZM162.003 82.604C162.984 82.604 163.779 82.988 164.387 83.756C164.995 84.5133 165.299 85.6333 165.299 87.116C165.299 88.108 165.155 88.9453 164.867 89.628C164.579 90.3 164.184 90.8067 163.683 91.148C163.181 91.4893 162.6 91.66 161.939 91.66C161.523 91.66 161.16 91.6067 160.851 91.5C160.552 91.3933 160.296 91.2547 160.083 91.084C159.869 90.9133 159.683 90.732 159.523 90.54H159.395C159.437 90.7427 159.469 90.956 159.491 91.18C159.512 91.3933 159.523 91.6067 159.523 91.82V95.34H157.139V82.764H159.075L159.411 83.9H159.523C159.683 83.6653 159.875 83.452 160.099 83.26C160.323 83.0573 160.589 82.8973 160.899 82.78C161.219 82.6627 161.587 82.604 162.003 82.604ZM161.235 84.508C160.819 84.508 160.488 84.5933 160.243 84.764C159.997 84.9347 159.816 85.196 159.699 85.548C159.592 85.8893 159.533 86.3213 159.523 86.844V87.1C159.523 87.6653 159.576 88.1453 159.683 88.54C159.789 88.924 159.971 89.2173 160.227 89.42C160.483 89.6227 160.829 89.724 161.267 89.724C161.629 89.724 161.928 89.6227 162.163 89.42C162.397 89.2173 162.573 88.9187 162.691 88.524C162.808 88.1293 162.867 87.6493 162.867 87.084C162.867 86.2307 162.733 85.5907 162.467 85.164C162.211 84.7267 161.8 84.508 161.235 84.508ZM170.848 82.588C172.021 82.588 172.917 82.844 173.536 83.356C174.165 83.8573 174.48 84.6307 174.48 85.676V91.5H172.816L172.352 90.316H172.288C172.042 90.6253 171.786 90.8813 171.52 91.084C171.264 91.2867 170.965 91.4307 170.624 91.516C170.293 91.612 169.882 91.66 169.392 91.66C168.88 91.66 168.416 91.564 168 91.372C167.594 91.1693 167.274 90.8653 167.04 90.46C166.805 90.044 166.688 89.5213 166.688 88.892C166.688 87.964 167.013 87.2813 167.664 86.844C168.314 86.396 169.29 86.1507 170.592 86.108L172.112 86.06V85.676C172.112 85.2173 171.989 84.8813 171.744 84.668C171.509 84.4547 171.178 84.348 170.752 84.348C170.325 84.348 169.909 84.412 169.504 84.54C169.098 84.6573 168.693 84.8067 168.288 84.988L167.504 83.372C167.973 83.1267 168.49 82.9347 169.056 82.796C169.632 82.6573 170.229 82.588 170.848 82.588ZM171.184 87.484C170.416 87.5053 169.882 87.644 169.584 87.9C169.285 88.156 169.136 88.492 169.136 88.908C169.136 89.2707 169.242 89.532 169.456 89.692C169.669 89.8413 169.946 89.916 170.288 89.916C170.8 89.916 171.232 89.7667 171.584 89.468C171.936 89.1587 172.112 88.7267 172.112 88.172V87.452L171.184 87.484ZM181.88 82.604C182.819 82.604 183.571 82.86 184.136 83.372C184.701 83.8733 184.984 84.684 184.984 85.804V91.5H182.6V86.396C182.6 85.7667 182.488 85.2973 182.264 84.988C182.04 84.668 181.683 84.508 181.192 84.508C180.467 84.508 179.971 84.7587 179.704 85.26C179.437 85.7507 179.304 86.46 179.304 87.388V91.5H176.92V82.764H178.744L179.064 83.884H179.192C179.384 83.5853 179.619 83.3453 179.896 83.164C180.173 82.972 180.483 82.8333 180.824 82.748C181.165 82.652 181.517 82.604 181.88 82.604ZM191.036 82.604C191.846 82.604 192.54 82.7587 193.116 83.068C193.702 83.3773 194.156 83.8253 194.476 84.412C194.796 84.9987 194.956 85.7187 194.956 86.572V87.724H189.324C189.345 88.396 189.542 88.924 189.916 89.308C190.3 89.692 190.828 89.884 191.5 89.884C192.065 89.884 192.577 89.8307 193.036 89.724C193.494 89.6067 193.969 89.4307 194.46 89.196V91.036C194.033 91.2493 193.58 91.404 193.1 91.5C192.63 91.6067 192.06 91.66 191.388 91.66C190.513 91.66 189.74 91.5 189.068 91.18C188.396 90.8493 187.868 90.3533 187.484 89.692C187.1 89.0307 186.908 88.1987 186.908 87.196C186.908 86.172 187.078 85.324 187.42 84.652C187.772 83.9693 188.257 83.4573 188.876 83.116C189.494 82.7747 190.214 82.604 191.036 82.604ZM191.052 84.3C190.593 84.3 190.209 84.4493 189.9 84.748C189.601 85.0467 189.425 85.5107 189.372 86.14H192.716C192.716 85.788 192.652 85.4733 192.524 85.196C192.406 84.9187 192.225 84.7 191.98 84.54C191.734 84.38 191.425 84.3 191.052 84.3ZM202.985 88.908C202.985 89.4947 202.846 89.996 202.569 90.412C202.291 90.8173 201.875 91.1267 201.321 91.34C200.766 91.5533 200.078 91.66 199.257 91.66C198.649 91.66 198.126 91.6173 197.689 91.532C197.251 91.4573 196.814 91.3293 196.377 91.148V89.18C196.846 89.3933 197.353 89.5693 197.897 89.708C198.441 89.8467 198.921 89.916 199.337 89.916C199.806 89.916 200.137 89.8467 200.329 89.708C200.531 89.5693 200.633 89.388 200.633 89.164C200.633 89.0147 200.59 88.8813 200.505 88.764C200.43 88.6467 200.259 88.5133 199.993 88.364C199.726 88.2147 199.31 88.0227 198.745 87.788C198.201 87.5533 197.753 87.324 197.401 87.1C197.049 86.8653 196.787 86.588 196.617 86.268C196.446 85.9373 196.361 85.5267 196.361 85.036C196.361 84.2253 196.675 83.6173 197.305 83.212C197.934 82.8067 198.771 82.604 199.817 82.604C200.361 82.604 200.878 82.6573 201.369 82.764C201.859 82.8707 202.366 83.0467 202.889 83.292L202.169 85.004C201.881 84.876 201.603 84.764 201.337 84.668C201.07 84.572 200.809 84.4973 200.553 84.444C200.307 84.3907 200.051 84.364 199.785 84.364C199.433 84.364 199.166 84.412 198.985 84.508C198.814 84.604 198.729 84.748 198.729 84.94C198.729 85.0787 198.771 85.2067 198.857 85.324C198.953 85.4307 199.129 85.548 199.385 85.676C199.651 85.804 200.041 85.9747 200.553 86.188C201.054 86.3907 201.486 86.604 201.849 86.828C202.211 87.0413 202.489 87.3133 202.681 87.644C202.883 87.964 202.985 88.3853 202.985 88.908ZM208.442 82.604C209.252 82.604 209.946 82.7587 210.522 83.068C211.108 83.3773 211.562 83.8253 211.882 84.412C212.202 84.9987 212.362 85.7187 212.362 86.572V87.724H206.73C206.751 88.396 206.948 88.924 207.322 89.308C207.706 89.692 208.234 89.884 208.906 89.884C209.471 89.884 209.983 89.8307 210.442 89.724C210.9 89.6067 211.375 89.4307 211.866 89.196V91.036C211.439 91.2493 210.986 91.404 210.506 91.5C210.036 91.6067 209.466 91.66 208.794 91.66C207.919 91.66 207.146 91.5 206.474 91.18C205.802 90.8493 205.274 90.3533 204.89 89.692C204.506 89.0307 204.314 88.1987 204.314 87.196C204.314 86.172 204.484 85.324 204.826 84.652C205.178 83.9693 205.663 83.4573 206.282 83.116C206.9 82.7747 207.62 82.604 208.442 82.604ZM208.458 84.3C207.999 84.3 207.615 84.4493 207.306 84.748C207.007 85.0467 206.831 85.5107 206.778 86.14H210.122C210.122 85.788 210.058 85.4733 209.93 85.196C209.812 84.9187 209.631 84.7 209.386 84.54C209.14 84.38 208.831 84.3 208.458 84.3ZM220.835 91.5H218.451V79.34H220.835V91.5ZM226.926 82.604C227.737 82.604 228.43 82.7587 229.006 83.068C229.593 83.3773 230.046 83.8253 230.366 84.412C230.686 84.9987 230.846 85.7187 230.846 86.572V87.724H225.214C225.235 88.396 225.433 88.924 225.806 89.308C226.19 89.692 226.718 89.884 227.39 89.884C227.955 89.884 228.467 89.8307 228.926 89.724C229.385 89.6067 229.859 89.4307 230.35 89.196V91.036C229.923 91.2493 229.47 91.404 228.99 91.5C228.521 91.6067 227.95 91.66 227.278 91.66C226.403 91.66 225.63 91.5 224.958 91.18C224.286 90.8493 223.758 90.3533 223.374 89.692C222.99 89.0307 222.798 88.1987 222.798 87.196C222.798 86.172 222.969 85.324 223.31 84.652C223.662 83.9693 224.147 83.4573 224.766 83.116C225.385 82.7747 226.105 82.604 226.926 82.604ZM226.942 84.3C226.483 84.3 226.099 84.4493 225.79 84.748C225.491 85.0467 225.315 85.5107 225.262 86.14H228.606C228.606 85.788 228.542 85.4733 228.414 85.196C228.297 84.9187 228.115 84.7 227.87 84.54C227.625 84.38 227.315 84.3 226.942 84.3ZM236.363 82.588C237.537 82.588 238.433 82.844 239.051 83.356C239.681 83.8573 239.995 84.6307 239.995 85.676V91.5H238.331L237.867 90.316H237.803C237.558 90.6253 237.302 90.8813 237.035 91.084C236.779 91.2867 236.481 91.4307 236.139 91.516C235.809 91.612 235.398 91.66 234.907 91.66C234.395 91.66 233.931 91.564 233.515 91.372C233.11 91.1693 232.79 90.8653 232.555 90.46C232.321 90.044 232.203 89.5213 232.203 88.892C232.203 87.964 232.529 87.2813 233.179 86.844C233.83 86.396 234.806 86.1507 236.107 86.108L237.627 86.06V85.676C237.627 85.2173 237.505 84.8813 237.259 84.668C237.025 84.4547 236.694 84.348 236.267 84.348C235.841 84.348 235.425 84.412 235.019 84.54C234.614 84.6573 234.209 84.8067 233.803 84.988L233.019 83.372C233.489 83.1267 234.006 82.9347 234.571 82.796C235.147 82.6573 235.745 82.588 236.363 82.588ZM236.699 87.484C235.931 87.5053 235.398 87.644 235.099 87.9C234.801 88.156 234.651 88.492 234.651 88.908C234.651 89.2707 234.758 89.532 234.971 89.692C235.185 89.8413 235.462 89.916 235.803 89.916C236.315 89.916 236.747 89.7667 237.099 89.468C237.451 89.1587 237.627 88.7267 237.627 88.172V87.452L236.699 87.484ZM247.316 82.604C247.433 82.604 247.572 82.6093 247.732 82.62C247.892 82.6307 248.02 82.6467 248.116 82.668L247.94 84.908C247.865 84.8867 247.753 84.8707 247.604 84.86C247.465 84.8387 247.342 84.828 247.236 84.828C246.926 84.828 246.628 84.8707 246.34 84.956C246.052 85.0307 245.79 85.1533 245.556 85.324C245.332 85.4947 245.15 85.724 245.012 86.012C244.884 86.2893 244.82 86.636 244.82 87.052V91.5H242.436V82.764H244.244L244.596 84.236H244.708C244.878 83.9373 245.092 83.6653 245.348 83.42C245.604 83.1747 245.897 82.9773 246.228 82.828C246.569 82.6787 246.932 82.604 247.316 82.604ZM254.661 82.604C255.6 82.604 256.352 82.86 256.917 83.372C257.482 83.8733 257.765 84.684 257.765 85.804V91.5H255.381V86.396C255.381 85.7667 255.269 85.2973 255.045 84.988C254.821 84.668 254.464 84.508 253.973 84.508C253.248 84.508 252.752 84.7587 252.485 85.26C252.218 85.7507 252.085 86.46 252.085 87.388V91.5H249.701V82.764H251.525L251.845 83.884H251.973C252.165 83.5853 252.4 83.3453 252.677 83.164C252.954 82.972 253.264 82.8333 253.605 82.748C253.946 82.652 254.298 82.604 254.661 82.604ZM262.601 82.764V91.5H260.217V82.764H262.601ZM261.417 79.34C261.769 79.34 262.073 79.4253 262.329 79.596C262.585 79.756 262.713 80.06 262.713 80.508C262.713 80.9453 262.585 81.2493 262.329 81.42C262.073 81.5907 261.769 81.676 261.417 81.676C261.054 81.676 260.745 81.5907 260.489 81.42C260.243 81.2493 260.121 80.9453 260.121 80.508C260.121 80.06 260.243 79.756 260.489 79.596C260.745 79.4253 261.054 79.34 261.417 79.34ZM270.052 82.604C270.99 82.604 271.742 82.86 272.308 83.372C272.873 83.8733 273.156 84.684 273.156 85.804V91.5H270.772V86.396C270.772 85.7667 270.66 85.2973 270.436 84.988C270.212 84.668 269.854 84.508 269.364 84.508C268.638 84.508 268.142 84.7587 267.876 85.26C267.609 85.7507 267.476 86.46 267.476 87.388V91.5H265.092V82.764H266.916L267.236 83.884H267.364C267.556 83.5853 267.79 83.3453 268.068 83.164C268.345 82.972 268.654 82.8333 268.996 82.748C269.337 82.652 269.689 82.604 270.052 82.604ZM278.439 82.604C278.973 82.604 279.453 82.7107 279.879 82.924C280.306 83.1373 280.669 83.4573 280.967 83.884H281.031L281.223 82.764H283.239V91.516C283.239 92.348 283.074 93.0467 282.743 93.612C282.423 94.1773 281.938 94.604 281.287 94.892C280.637 95.1907 279.831 95.34 278.871 95.34C278.253 95.34 277.677 95.3027 277.143 95.228C276.621 95.1533 276.109 95.02 275.607 94.828V92.924C275.97 93.0733 276.333 93.196 276.695 93.292C277.069 93.3987 277.447 93.4733 277.831 93.516C278.226 93.5693 278.621 93.596 279.015 93.596C279.634 93.596 280.093 93.4307 280.391 93.1C280.701 92.7693 280.855 92.2733 280.855 91.612V91.436C280.855 91.2547 280.861 91.068 280.871 90.876C280.893 90.684 280.909 90.5133 280.919 90.364H280.855C280.557 90.8227 280.199 91.1533 279.783 91.356C279.367 91.5587 278.898 91.66 278.375 91.66C277.341 91.66 276.53 91.2653 275.943 90.476C275.367 89.676 275.079 88.5667 275.079 87.148C275.079 86.188 275.213 85.372 275.479 84.7C275.746 84.0173 276.13 83.5 276.631 83.148C277.143 82.7853 277.746 82.604 278.439 82.604ZM279.191 84.54C278.818 84.54 278.503 84.6413 278.247 84.844C278.002 85.036 277.815 85.3293 277.687 85.724C277.57 86.108 277.511 86.5933 277.511 87.18C277.511 88.0547 277.65 88.7107 277.927 89.148C278.205 89.5747 278.637 89.788 279.223 89.788C279.533 89.788 279.799 89.7507 280.023 89.676C280.247 89.5907 280.429 89.4573 280.567 89.276C280.717 89.084 280.829 88.8387 280.903 88.54C280.978 88.2413 281.015 87.8787 281.015 87.452V87.164C281.015 86.5347 280.951 86.028 280.823 85.644C280.695 85.26 280.498 84.9827 280.231 84.812C279.965 84.6307 279.618 84.54 279.191 84.54ZM288.068 89.82C287.972 90.1933 287.85 90.5987 287.7 91.036C287.551 91.4627 287.391 91.8893 287.22 92.316C287.05 92.7533 286.874 93.1693 286.692 93.564H284.98C285.087 93.1373 285.188 92.6893 285.284 92.22C285.38 91.7613 285.471 91.308 285.556 90.86C285.642 90.412 285.711 90.0067 285.764 89.644H287.956L288.068 89.82ZM91.5026 98.604C92.484 98.604 93.2786 98.988 93.8866 99.756C94.4946 100.513 94.7986 101.633 94.7986 103.116C94.7986 104.108 94.6546 104.945 94.3666 105.628C94.0786 106.3 93.684 106.807 93.1826 107.148C92.6813 107.489 92.1 107.66 91.4386 107.66C91.0226 107.66 90.66 107.607 90.3506 107.5C90.052 107.393 89.796 107.255 89.5826 107.084C89.3693 106.913 89.1826 106.732 89.0226 106.54H88.8946C88.9373 106.743 88.9693 106.956 88.9906 107.18C89.012 107.393 89.0226 107.607 89.0226 107.82V111.34H86.6386V98.764H88.5746L88.9106 99.9H89.0226C89.1826 99.6653 89.3746 99.452 89.5986 99.26C89.8226 99.0573 90.0893 98.8973 90.3986 98.78C90.7186 98.6627 91.0866 98.604 91.5026 98.604ZM90.7346 100.508C90.3186 100.508 89.988 100.593 89.7426 100.764C89.4973 100.935 89.316 101.196 89.1986 101.548C89.092 101.889 89.0333 102.321 89.0226 102.844V103.1C89.0226 103.665 89.076 104.145 89.1826 104.54C89.2893 104.924 89.4706 105.217 89.7266 105.42C89.9826 105.623 90.3293 105.724 90.7666 105.724C91.1293 105.724 91.428 105.623 91.6626 105.42C91.8973 105.217 92.0733 104.919 92.1906 104.524C92.308 104.129 92.3666 103.649 92.3666 103.084C92.3666 102.231 92.2333 101.591 91.9666 101.164C91.7106 100.727 91.3 100.508 90.7346 100.508ZM100.364 98.604C101.174 98.604 101.868 98.7587 102.444 99.068C103.03 99.3773 103.484 99.8253 103.804 100.412C104.124 100.999 104.284 101.719 104.284 102.572V103.724H98.6516C98.673 104.396 98.8703 104.924 99.2436 105.308C99.6276 105.692 100.156 105.884 100.828 105.884C101.393 105.884 101.905 105.831 102.364 105.724C102.822 105.607 103.297 105.431 103.788 105.196V107.036C103.361 107.249 102.908 107.404 102.428 107.5C101.958 107.607 101.388 107.66 100.716 107.66C99.841 107.66 99.0676 107.5 98.3956 107.18C97.7236 106.849 97.1956 106.353 96.8116 105.692C96.4276 105.031 96.2356 104.199 96.2356 103.196C96.2356 102.172 96.4063 101.324 96.7476 100.652C97.0996 99.9693 97.585 99.4573 98.2036 99.116C98.8223 98.7747 99.5423 98.604 100.364 98.604ZM100.38 100.3C99.921 100.3 99.537 100.449 99.2276 100.748C98.929 101.047 98.753 101.511 98.6996 102.14H102.044C102.044 101.788 101.98 101.473 101.852 101.196C101.734 100.919 101.553 100.7 101.308 100.54C101.062 100.38 100.753 100.3 100.38 100.3ZM111.097 98.604C111.214 98.604 111.353 98.6093 111.513 98.62C111.673 98.6307 111.801 98.6467 111.897 98.668L111.721 100.908C111.646 100.887 111.534 100.871 111.385 100.86C111.246 100.839 111.123 100.828 111.017 100.828C110.707 100.828 110.409 100.871 110.121 100.956C109.833 101.031 109.571 101.153 109.337 101.324C109.113 101.495 108.931 101.724 108.793 102.012C108.665 102.289 108.601 102.636 108.601 103.052V107.5H106.217V98.764H108.025L108.377 100.236H108.489C108.659 99.9373 108.873 99.6653 109.129 99.42C109.385 99.1747 109.678 98.9773 110.009 98.828C110.35 98.6787 110.713 98.604 111.097 98.604ZM119.578 104.908C119.578 105.495 119.44 105.996 119.162 106.412C118.885 106.817 118.469 107.127 117.914 107.34C117.36 107.553 116.672 107.66 115.85 107.66C115.242 107.66 114.72 107.617 114.282 107.532C113.845 107.457 113.408 107.329 112.97 107.148V105.18C113.44 105.393 113.946 105.569 114.49 105.708C115.034 105.847 115.514 105.916 115.93 105.916C116.4 105.916 116.73 105.847 116.922 105.708C117.125 105.569 117.226 105.388 117.226 105.164C117.226 105.015 117.184 104.881 117.098 104.764C117.024 104.647 116.853 104.513 116.586 104.364C116.32 104.215 115.904 104.023 115.338 103.788C114.794 103.553 114.346 103.324 113.994 103.1C113.642 102.865 113.381 102.588 113.21 102.268C113.04 101.937 112.954 101.527 112.954 101.036C112.954 100.225 113.269 99.6173 113.898 99.212C114.528 98.8067 115.365 98.604 116.41 98.604C116.954 98.604 117.472 98.6573 117.962 98.764C118.453 98.8707 118.96 99.0467 119.482 99.292L118.762 101.004C118.474 100.876 118.197 100.764 117.93 100.668C117.664 100.572 117.402 100.497 117.146 100.444C116.901 100.391 116.645 100.364 116.378 100.364C116.026 100.364 115.76 100.412 115.578 100.508C115.408 100.604 115.322 100.748 115.322 100.94C115.322 101.079 115.365 101.207 115.45 101.324C115.546 101.431 115.722 101.548 115.978 101.676C116.245 101.804 116.634 101.975 117.146 102.188C117.648 102.391 118.08 102.604 118.442 102.828C118.805 103.041 119.082 103.313 119.274 103.644C119.477 103.964 119.578 104.385 119.578 104.908ZM129.372 103.116C129.372 103.841 129.27 104.487 129.068 105.052C128.876 105.617 128.593 106.097 128.22 106.492C127.857 106.876 127.414 107.169 126.892 107.372C126.369 107.564 125.777 107.66 125.116 107.66C124.508 107.66 123.942 107.564 123.42 107.372C122.908 107.169 122.465 106.876 122.092 106.492C121.718 106.097 121.425 105.617 121.212 105.052C121.009 104.487 120.908 103.841 120.908 103.116C120.908 102.145 121.078 101.329 121.42 100.668C121.761 99.996 122.252 99.484 122.892 99.132C123.532 98.78 124.289 98.604 125.164 98.604C125.985 98.604 126.71 98.78 127.34 99.132C127.969 99.484 128.465 99.996 128.828 100.668C129.19 101.329 129.372 102.145 129.372 103.116ZM123.34 103.116C123.34 103.692 123.398 104.177 123.516 104.572C123.644 104.956 123.841 105.249 124.108 105.452C124.374 105.644 124.721 105.74 125.148 105.74C125.574 105.74 125.916 105.644 126.172 105.452C126.438 105.249 126.63 104.956 126.748 104.572C126.876 104.177 126.94 103.692 126.94 103.116C126.94 102.54 126.876 102.06 126.748 101.676C126.63 101.292 126.438 101.004 126.172 100.812C125.905 100.62 125.558 100.524 125.132 100.524C124.502 100.524 124.044 100.743 123.756 101.18C123.478 101.607 123.34 102.252 123.34 103.116ZM136.302 98.604C137.24 98.604 137.992 98.86 138.558 99.372C139.123 99.8733 139.406 100.684 139.406 101.804V107.5H137.022V102.396C137.022 101.767 136.91 101.297 136.686 100.988C136.462 100.668 136.104 100.508 135.614 100.508C134.888 100.508 134.392 100.759 134.126 101.26C133.859 101.751 133.726 102.46 133.726 103.388V107.5H131.342V98.764H133.166L133.486 99.884H133.614C133.806 99.5853 134.04 99.3453 134.318 99.164C134.595 98.972 134.904 98.8333 135.246 98.748C135.587 98.652 135.939 98.604 136.302 98.604ZM145.441 98.588C146.615 98.588 147.511 98.844 148.129 99.356C148.759 99.8573 149.073 100.631 149.073 101.676V107.5H147.409L146.945 106.316H146.881C146.636 106.625 146.38 106.881 146.113 107.084C145.857 107.287 145.559 107.431 145.217 107.516C144.887 107.612 144.476 107.66 143.985 107.66C143.473 107.66 143.009 107.564 142.593 107.372C142.188 107.169 141.868 106.865 141.633 106.46C141.399 106.044 141.281 105.521 141.281 104.892C141.281 103.964 141.607 103.281 142.257 102.844C142.908 102.396 143.884 102.151 145.185 102.108L146.705 102.06V101.676C146.705 101.217 146.583 100.881 146.337 100.668C146.103 100.455 145.772 100.348 145.345 100.348C144.919 100.348 144.503 100.412 144.097 100.54C143.692 100.657 143.287 100.807 142.881 100.988L142.097 99.372C142.567 99.1267 143.084 98.9347 143.649 98.796C144.225 98.6573 144.823 98.588 145.441 98.588ZM145.777 103.484C145.009 103.505 144.476 103.644 144.177 103.9C143.879 104.156 143.729 104.492 143.729 104.908C143.729 105.271 143.836 105.532 144.049 105.692C144.263 105.841 144.54 105.916 144.881 105.916C145.393 105.916 145.825 105.767 146.177 105.468C146.529 105.159 146.705 104.727 146.705 104.172V103.452L145.777 103.484ZM153.898 107.5H151.514V95.34H153.898V107.5ZM158.773 98.764V107.5H156.389V98.764H158.773ZM157.589 95.34C157.941 95.34 158.245 95.4253 158.501 95.596C158.757 95.756 158.885 96.06 158.885 96.508C158.885 96.9453 158.757 97.2493 158.501 97.42C158.245 97.5907 157.941 97.676 157.589 97.676C157.226 97.676 156.917 97.5907 156.661 97.42C156.415 97.2493 156.293 96.9453 156.293 96.508C156.293 96.06 156.415 95.756 156.661 95.596C156.917 95.4253 157.226 95.34 157.589 95.34ZM167.344 107.5H160.448V106.092L164.496 100.588H160.688V98.764H167.2V100.316L163.264 105.676H167.344V107.5ZM172.676 98.604C173.487 98.604 174.18 98.7587 174.756 99.068C175.343 99.3773 175.796 99.8253 176.116 100.412C176.436 100.999 176.596 101.719 176.596 102.572V103.724H170.964C170.985 104.396 171.183 104.924 171.556 105.308C171.94 105.692 172.468 105.884 173.14 105.884C173.705 105.884 174.217 105.831 174.676 105.724C175.135 105.607 175.609 105.431 176.1 105.196V107.036C175.673 107.249 175.22 107.404 174.74 107.5C174.271 107.607 173.7 107.66 173.028 107.66C172.153 107.66 171.38 107.5 170.708 107.18C170.036 106.849 169.508 106.353 169.124 105.692C168.74 105.031 168.548 104.199 168.548 103.196C168.548 102.172 168.719 101.324 169.06 100.652C169.412 99.9693 169.897 99.4573 170.516 99.116C171.135 98.7747 171.855 98.604 172.676 98.604ZM172.692 100.3C172.233 100.3 171.849 100.449 171.54 100.748C171.241 101.047 171.065 101.511 171.012 102.14H174.356C174.356 101.788 174.292 101.473 174.164 101.196C174.047 100.919 173.865 100.7 173.62 100.54C173.375 100.38 173.065 100.3 172.692 100.3ZM181.297 107.66C180.327 107.66 179.532 107.281 178.913 106.524C178.305 105.756 178.001 104.631 178.001 103.148C178.001 101.655 178.311 100.524 178.929 99.756C179.548 98.988 180.359 98.604 181.361 98.604C181.777 98.604 182.145 98.6627 182.465 98.78C182.785 98.8867 183.057 99.036 183.281 99.228C183.516 99.42 183.713 99.6387 183.873 99.884H183.953C183.921 99.7133 183.884 99.468 183.841 99.148C183.799 98.8173 183.777 98.4813 183.777 98.14V95.34H186.161V107.5H184.337L183.873 106.364H183.777C183.628 106.599 183.436 106.817 183.201 107.02C182.977 107.212 182.711 107.367 182.401 107.484C182.092 107.601 181.724 107.66 181.297 107.66ZM182.129 105.756C182.791 105.756 183.255 105.564 183.521 105.18C183.788 104.785 183.927 104.199 183.937 103.42V103.164C183.937 102.311 183.804 101.66 183.537 101.212C183.281 100.764 182.801 100.54 182.097 100.54C181.575 100.54 181.164 100.769 180.865 101.228C180.567 101.676 180.417 102.327 180.417 103.18C180.417 104.033 180.567 104.679 180.865 105.116C181.164 105.543 181.585 105.756 182.129 105.756ZM197.643 100.556H195.579V107.5H193.195V100.556H191.883V99.404L193.195 98.764V98.124C193.195 97.3773 193.317 96.8013 193.562 96.396C193.819 95.98 194.176 95.6867 194.635 95.516C195.104 95.3453 195.653 95.26 196.283 95.26C196.752 95.26 197.173 95.2973 197.547 95.372C197.931 95.4467 198.24 95.532 198.475 95.628L197.867 97.372C197.685 97.3187 197.488 97.2707 197.275 97.228C197.061 97.1747 196.816 97.148 196.539 97.148C196.208 97.148 195.963 97.2493 195.803 97.452C195.653 97.6547 195.579 97.9107 195.579 98.22V98.764H197.643V100.556ZM206.934 103.116C206.934 103.841 206.833 104.487 206.63 105.052C206.438 105.617 206.155 106.097 205.782 106.492C205.419 106.876 204.977 107.169 204.454 107.372C203.931 107.564 203.339 107.66 202.678 107.66C202.07 107.66 201.505 107.564 200.982 107.372C200.47 107.169 200.027 106.876 199.654 106.492C199.281 106.097 198.987 105.617 198.774 105.052C198.571 104.487 198.47 103.841 198.47 103.116C198.47 102.145 198.641 101.329 198.982 100.668C199.323 99.996 199.814 99.484 200.454 99.132C201.094 98.78 201.851 98.604 202.726 98.604C203.547 98.604 204.273 98.78 204.902 99.132C205.531 99.484 206.027 99.996 206.39 100.668C206.753 101.329 206.934 102.145 206.934 103.116ZM200.902 103.116C200.902 103.692 200.961 104.177 201.078 104.572C201.206 104.956 201.403 105.249 201.67 105.452C201.937 105.644 202.283 105.74 202.71 105.74C203.137 105.74 203.478 105.644 203.734 105.452C204.001 105.249 204.193 104.956 204.31 104.572C204.438 104.177 204.502 103.692 204.502 103.116C204.502 102.54 204.438 102.06 204.31 101.676C204.193 101.292 204.001 101.004 203.734 100.812C203.467 100.62 203.121 100.524 202.694 100.524C202.065 100.524 201.606 100.743 201.318 101.18C201.041 101.607 200.902 102.252 200.902 103.116ZM213.784 98.604C213.902 98.604 214.04 98.6093 214.2 98.62C214.36 98.6307 214.488 98.6467 214.584 98.668L214.408 100.908C214.334 100.887 214.222 100.871 214.072 100.86C213.934 100.839 213.811 100.828 213.704 100.828C213.395 100.828 213.096 100.871 212.808 100.956C212.52 101.031 212.259 101.153 212.024 101.324C211.8 101.495 211.619 101.724 211.48 102.012C211.352 102.289 211.288 102.636 211.288 103.052V107.5H208.904V98.764H210.712L211.064 100.236H211.176C211.347 99.9373 211.56 99.6653 211.816 99.42C212.072 99.1747 212.366 98.9773 212.696 98.828C213.038 98.6787 213.4 98.604 213.784 98.604ZM219.078 98.764H221.686L223.334 103.676C223.387 103.836 223.43 103.996 223.462 104.156C223.505 104.316 223.537 104.481 223.558 104.652C223.59 104.823 223.611 105.004 223.622 105.196H223.67C223.702 104.919 223.745 104.657 223.798 104.412C223.862 104.156 223.931 103.911 224.006 103.676L225.622 98.764H228.182L224.486 108.62C224.262 109.217 223.969 109.719 223.606 110.124C223.254 110.529 222.843 110.833 222.374 111.036C221.905 111.239 221.393 111.34 220.838 111.34C220.571 111.34 220.337 111.324 220.134 111.292C219.942 111.271 219.771 111.244 219.622 111.212V109.324C219.739 109.345 219.878 109.367 220.038 109.388C220.209 109.409 220.385 109.42 220.566 109.42C220.897 109.42 221.179 109.351 221.414 109.212C221.659 109.073 221.862 108.881 222.022 108.636C222.182 108.401 222.31 108.145 222.406 107.868L222.55 107.436L219.078 98.764ZM237.372 103.116C237.372 103.841 237.27 104.487 237.068 105.052C236.876 105.617 236.593 106.097 236.22 106.492C235.857 106.876 235.414 107.169 234.892 107.372C234.369 107.564 233.777 107.66 233.116 107.66C232.508 107.66 231.942 107.564 231.42 107.372C230.908 107.169 230.465 106.876 230.092 106.492C229.718 106.097 229.425 105.617 229.212 105.052C229.009 104.487 228.908 103.841 228.908 103.116C228.908 102.145 229.078 101.329 229.42 100.668C229.761 99.996 230.252 99.484 230.892 99.132C231.532 98.78 232.289 98.604 233.164 98.604C233.985 98.604 234.71 98.78 235.34 99.132C235.969 99.484 236.465 99.996 236.828 100.668C237.19 101.329 237.372 102.145 237.372 103.116ZM231.34 103.116C231.34 103.692 231.398 104.177 231.516 104.572C231.644 104.956 231.841 105.249 232.108 105.452C232.374 105.644 232.721 105.74 233.148 105.74C233.574 105.74 233.916 105.644 234.172 105.452C234.438 105.249 234.63 104.956 234.748 104.572C234.876 104.177 234.94 103.692 234.94 103.116C234.94 102.54 234.876 102.06 234.748 101.676C234.63 101.292 234.438 101.004 234.172 100.812C233.905 100.62 233.558 100.524 233.132 100.524C232.502 100.524 232.044 100.743 231.756 101.18C231.478 101.607 231.34 102.252 231.34 103.116ZM247.358 98.764V107.5H245.534L245.214 106.38H245.086C244.904 106.679 244.67 106.924 244.382 107.116C244.104 107.297 243.795 107.431 243.454 107.516C243.112 107.612 242.76 107.66 242.398 107.66C241.779 107.66 241.235 107.548 240.766 107.324C240.296 107.1 239.934 106.753 239.678 106.284C239.422 105.815 239.294 105.207 239.294 104.46V98.764H241.678V103.868C241.678 104.487 241.79 104.956 242.014 105.276C242.238 105.596 242.595 105.756 243.086 105.756C243.576 105.756 243.955 105.644 244.222 105.42C244.499 105.196 244.691 104.871 244.798 104.444C244.915 104.017 244.974 103.495 244.974 102.876V98.764H247.358Z" fill="#F797AA"/>
</svg>
