<svg width="90" height="44" viewBox="0 0 90 44" fill="none" xmlns="http://www.w3.org/2000/svg">
<rect y="1.99997" width="58" height="40" rx="8" fill="#E63946"/>
<path d="M13.928 33.44C12.76 33.44 11.856 33.328 11.216 33.104C10.576 32.88 10.128 32.504 9.872 31.976C9.632 31.448 9.512 30.736 9.512 29.84C9.512 28.928 9.632 28.216 9.872 27.704C10.128 27.176 10.576 26.8 11.216 26.576C11.856 26.352 12.76 26.24 13.928 26.24H20.072C21.256 26.24 22.168 26.352 22.808 26.576C23.448 26.8 23.888 27.176 24.128 27.704C24.384 28.216 24.512 28.928 24.512 29.84C24.512 30.736 24.384 31.448 24.128 31.976C23.888 32.504 23.448 32.88 22.808 33.104C22.168 33.328 21.256 33.44 20.072 33.44H13.928ZM6.896 18.32C6.576 18.32 6.296 18.208 6.056 17.984C5.832 17.76 5.72 17.488 5.72 17.168C5.72 16.848 5.832 16.576 6.056 16.352C6.296 16.128 6.576 16.016 6.896 16.016H27.008C27.328 16.016 27.6 16.128 27.824 16.352C28.064 16.576 28.184 16.848 28.184 17.168C28.184 17.488 28.064 17.76 27.824 17.984C27.6 18.208 27.328 18.32 27.008 18.32H6.896ZM10.4 25.064C10.096 25.064 9.832 24.96 9.608 24.752C9.384 24.528 9.272 24.264 9.272 23.96C9.272 23.64 9.384 23.376 9.608 23.168C9.832 22.944 10.096 22.832 10.4 22.832H23.576C23.896 22.832 24.16 22.944 24.368 23.168C24.592 23.376 24.704 23.64 24.704 23.96C24.704 24.264 24.592 24.528 24.368 24.752C24.16 24.96 23.896 25.064 23.576 25.064H10.4ZM10.4 21.704C10.096 21.704 9.832 21.6 9.608 21.392C9.384 21.168 9.272 20.904 9.272 20.6C9.272 20.28 9.384 20.016 9.608 19.808C9.832 19.584 10.096 19.472 10.4 19.472H23.576C23.896 19.472 24.16 19.584 24.368 19.808C24.592 20.016 24.704 20.28 24.704 20.6C24.704 20.904 24.592 21.168 24.368 21.392C24.16 21.6 23.896 21.704 23.576 21.704H10.4ZM10.4 14.864C10.096 14.864 9.832 14.752 9.608 14.528C9.384 14.304 9.272 14.04 9.272 13.736C9.272 13.432 9.384 13.176 9.608 12.968C9.832 12.744 10.096 12.632 10.4 12.632H23.576C23.896 12.632 24.16 12.744 24.368 12.968C24.592 13.176 24.704 13.432 24.704 13.736C24.704 14.04 24.592 14.304 24.368 14.528C24.16 14.752 23.896 14.864 23.576 14.864H10.4ZM14.048 31.064H19.976C20.584 31.064 20.992 30.976 21.2 30.8C21.408 30.624 21.512 30.304 21.512 29.84C21.512 29.36 21.408 29.032 21.2 28.856C20.992 28.68 20.584 28.592 19.976 28.592H14.048C13.44 28.592 13.032 28.68 12.824 28.856C12.616 29.032 12.512 29.36 12.512 29.84C12.512 30.304 12.616 30.624 12.824 30.8C13.032 30.976 13.44 31.064 14.048 31.064ZM41.024 34.208C40.656 34.208 40.336 34.08 40.064 33.824C39.792 33.568 39.656 33.232 39.656 32.816V29.888C39.032 30.352 38.304 30.816 37.472 31.28C36.656 31.744 35.824 32.168 34.976 32.552C34.128 32.952 33.328 33.28 32.576 33.536C32.176 33.68 31.792 33.704 31.424 33.608C31.056 33.528 30.784 33.272 30.608 32.84C30.48 32.488 30.488 32.152 30.632 31.832C30.776 31.496 31.072 31.264 31.52 31.136C32.08 30.976 32.696 30.768 33.368 30.512C34.04 30.24 34.712 29.952 35.384 29.648C36.072 29.344 36.696 29.04 37.256 28.736H31.016C30.712 28.736 30.456 28.632 30.248 28.424C30.04 28.216 29.936 27.96 29.936 27.656C29.936 27.352 30.04 27.096 30.248 26.888C30.456 26.664 30.712 26.552 31.016 26.552H39.656V25.664H39.08C37.8 25.664 36.808 25.552 36.104 25.328C35.416 25.088 34.936 24.696 34.664 24.152C34.392 23.592 34.256 22.824 34.256 21.848V20.144H31.064C30.776 20.144 30.528 20.04 30.32 19.832C30.128 19.624 30.032 19.376 30.032 19.088C30.032 18.8 30.128 18.552 30.32 18.344C30.528 18.136 30.776 18.032 31.064 18.032H34.256V17.432C34.256 17 34.392 16.664 34.664 16.424C34.936 16.168 35.264 16.04 35.648 16.04C35.92 16.04 36.16 16.096 36.368 16.208V15.536H31.208C30.904 15.536 30.648 15.432 30.44 15.224C30.232 15.016 30.128 14.768 30.128 14.48C30.128 14.176 30.232 13.92 30.44 13.712C30.648 13.504 30.904 13.4 31.208 13.4H36.368V12.8C36.368 12.4 36.496 12.088 36.752 11.864C37.008 11.624 37.312 11.504 37.664 11.504C38.032 11.504 38.344 11.624 38.6 11.864C38.856 12.088 38.984 12.4 38.984 12.8V13.4H43.04V12.8C43.04 12.4 43.168 12.088 43.424 11.864C43.696 11.624 44.008 11.504 44.36 11.504C44.728 11.504 45.032 11.624 45.272 11.864C45.528 12.088 45.656 12.4 45.656 12.8V13.4H50.816C51.104 13.4 51.352 13.504 51.56 13.712C51.768 13.92 51.872 14.176 51.872 14.48C51.872 14.768 51.768 15.016 51.56 15.224C51.352 15.432 51.104 15.536 50.816 15.536H45.656V16.136C45.736 16.104 45.808 16.088 45.872 16.088C45.936 16.088 46 16.088 46.064 16.088C46.432 16.088 46.744 16.208 47 16.448C47.272 16.672 47.408 16.992 47.408 17.408V18.032H50.96C51.248 18.032 51.488 18.136 51.68 18.344C51.888 18.552 51.992 18.8 51.992 19.088C51.992 19.376 51.888 19.624 51.68 19.832C51.488 20.04 51.248 20.144 50.96 20.144H47.408C47.408 20.864 47.296 21.432 47.072 21.848C46.848 22.248 46.44 22.536 45.848 22.712C45.272 22.872 44.424 22.952 43.304 22.952C42.2 22.952 41.352 22.872 40.76 22.712C40.168 22.536 39.76 22.248 39.536 21.848C39.328 21.432 39.224 20.864 39.224 20.144H37.04V21.848C37.04 22.504 37.184 22.944 37.472 23.168C37.776 23.392 38.312 23.504 39.08 23.504H48.56C48.864 23.504 49.12 23.608 49.328 23.816C49.536 24.024 49.64 24.28 49.64 24.584C49.64 24.888 49.536 25.144 49.328 25.352C49.12 25.56 48.864 25.664 48.56 25.664H42.416V26.552H51.008C51.312 26.552 51.568 26.664 51.776 26.888C51.984 27.096 52.088 27.352 52.088 27.656C52.088 27.96 51.984 28.216 51.776 28.424C51.568 28.632 51.312 28.736 51.008 28.736H44.912C45.792 29.184 46.76 29.632 47.816 30.08C48.872 30.528 49.84 30.872 50.72 31.112C51.136 31.224 51.416 31.44 51.56 31.76C51.72 32.064 51.728 32.408 51.584 32.792C51.424 33.192 51.152 33.44 50.768 33.536C50.4 33.632 50.008 33.616 49.592 33.488C48.856 33.248 48.056 32.928 47.192 32.528C46.328 32.144 45.472 31.72 44.624 31.256C43.792 30.776 43.056 30.296 42.416 29.816V32.816C42.416 33.232 42.28 33.568 42.008 33.824C41.736 34.08 41.408 34.208 41.024 34.208ZM37.04 18.032H39.224V17.384C39.224 16.984 39.352 16.672 39.608 16.448C39.864 16.208 40.168 16.088 40.52 16.088C40.888 16.088 41.192 16.208 41.432 16.448C41.688 16.672 41.816 16.984 41.816 17.384V18.032H44.744V17.288C44.68 17.304 44.616 17.32 44.552 17.336C44.488 17.336 44.424 17.336 44.36 17.336C44.008 17.336 43.696 17.216 43.424 16.976C43.168 16.736 43.04 16.416 43.04 16.016V15.536H38.984V16.016C38.984 16.416 38.856 16.736 38.6 16.976C38.344 17.216 38.032 17.336 37.664 17.336C37.552 17.336 37.44 17.32 37.328 17.288C37.216 17.256 37.112 17.216 37.016 17.168C37.032 17.232 37.04 17.32 37.04 17.432V18.032ZM43.28 21.032C43.872 21.032 44.256 20.984 44.432 20.888C44.624 20.776 44.728 20.528 44.744 20.144H41.816C41.832 20.528 41.928 20.776 42.104 20.888C42.296 20.984 42.688 21.032 43.28 21.032Z" fill="#FAF3E0"/>
<path d="M69.8 32C69.336 32 69.016 31.864 68.84 31.592C68.664 31.32 68.664 30.952 68.84 30.488L74.264 16.256C74.504 15.552 75.008 15.2 75.776 15.2H75.968C76.736 15.2 77.24 15.552 77.48 16.256L82.928 30.488C83.104 30.952 83.096 31.32 82.904 31.592C82.728 31.864 82.408 32 81.944 32H81.488C80.736 32 80.24 31.64 80 30.92L79.064 28.304H72.608L71.672 30.92C71.432 31.64 70.936 32 70.184 32H69.8ZM73.52 25.736H78.176L75.872 19.184L73.52 25.736ZM86.822 32C85.91 32 85.454 31.528 85.454 30.584V16.616C85.454 15.672 85.91 15.2 86.822 15.2C87.75 15.2 88.214 15.672 88.214 16.616V30.584C88.214 31.528 87.75 32 86.822 32Z" fill="#E63946"/>
</svg>
